<mxfile host="app.diagrams.net" agent="Mozilla/5.0 (Windows NT 10.0; Win64; x64; rv:133.0) Gecko/20100101 Firefox/133.0" version="25.0.3">
  <diagram name="Seite-1" id="1XfGEOQ3_N1sjiQTTxj4">
    <mxGraphModel dx="2074" dy="1142" grid="1" gridSize="10" guides="1" tooltips="1" connect="1" arrows="1" fold="1" page="1" pageScale="1" pageWidth="827" pageHeight="1169" math="0" shadow="0">
      <root>
        <mxCell id="0" />
        <mxCell id="1" parent="0" />
        <mxCell id="l7McVkCv0LQtob7eJ7o9-1" value="Benutzerschnittstelle" style="rounded=0;whiteSpace=wrap;html=1;strokeColor=#006666;strokeWidth=2;" parent="1" vertex="1">
          <mxGeometry x="80" y="80" width="320" height="40" as="geometry" />
        </mxCell>
        <mxCell id="l7McVkCv0LQtob7eJ7o9-3" value="Systemunterstützung (Betriebssystem, Datenbank etc.)" style="rounded=0;whiteSpace=wrap;html=1;strokeColor=#006666;strokeWidth=2;" parent="1" vertex="1">
          <mxGeometry x="80" y="230" width="320" height="40" as="geometry" />
        </mxCell>
        <mxCell id="l7McVkCv0LQtob7eJ7o9-4" value="Zentrale Geschäftslogik / Anwendungsfunktionalität Systemprogramme" style="rounded=0;whiteSpace=wrap;html=1;strokeColor=#006666;strokeWidth=2;" parent="1" vertex="1">
          <mxGeometry x="80" y="180" width="320" height="40" as="geometry" />
        </mxCell>
        <mxCell id="l7McVkCv0LQtob7eJ7o9-5" value="Benutzerschnittstellenverwaltung&lt;br&gt;Authentifizierung und Autorisation" style="rounded=0;whiteSpace=wrap;html=1;strokeColor=#006666;strokeWidth=2;" parent="1" vertex="1">
          <mxGeometry x="80" y="130" width="320" height="40" as="geometry" />
        </mxCell>
      </root>
    </mxGraphModel>
  </diagram>
</mxfile>
